<?xml version="1.0" encoding="UTF-8" standalone="no"?>
<!DOCTYPE svg PUBLIC "-//W3C//DTD SVG 1.1//EN" "http://www.w3.org/Graphics/SVG/1.1/DTD/svg11.dtd">
<svg width="100%" height="100%" viewBox="0 0 3000 1000" version="1.1" xmlns="http://www.w3.org/2000/svg" xmlns:xlink="http://www.w3.org/1999/xlink" xml:space="preserve" xmlns:serif="http://www.serif.com/" style="fill-rule:evenodd;clip-rule:evenodd;stroke-linejoin:round;stroke-miterlimit:2;">
    <g>
        <path d="M429.522,909.327C442.558,890.604 455.335,871.421 468.921,853.132C475.506,843.742 482.675,834.967 489.733,826.101C496.722,817.154 504.014,808.607 511.27,799.851C518.348,790.933 526.147,782.897 533.75,774.594L556.542,749.747L556.409,749.887L581.069,727.313L593.339,715.949C597.52,712.045 601.345,708.42 605.845,705.152L632.01,684.791C640.586,678.448 649.283,670.77 658.313,665.273L672.008,656.279L685.936,647.491L699.834,638.71C704.646,635.638 708.818,632.929 713.838,630.635L772.281,601.367L771.883,601.546L825.559,582.276L839.024,577.472L842.397,576.268L843.23,575.979C843.234,575.951 843.817,575.779 843.355,575.912L843.814,575.796L845.534,575.383L852.477,573.675L880.221,566.847C889.455,564.458 898.706,562.256 907.958,560.426C917.179,558.239 926.451,556.622 935.807,555.591L992.568,547.581L992.034,547.631L1038.26,545.92L1061.35,545.006C1065.24,544.803 1068.71,544.749 1072.75,544.881L1084.33,545.075L1095.93,545.245L1107.21,545.79L1130.44,546.995L1176.85,549.286L1176.34,549.257C1219.74,555.336 1263.46,560.588 1306.13,569.746C1327.46,573.532 1349.66,578.877 1371.03,583.391L1387.25,586.915L1391.29,587.806L1392.29,588.03L1392.95,588.21L1394.95,588.805L1402.98,591.143L1435.06,600.467C1477.72,612.955 1520.42,625.226 1563.06,638.822C1605.53,652.718 1649.07,663.932 1691.92,674.873L1757.08,689.284C1778.83,693.488 1800.63,696.855 1822.42,700.673C1844.17,704.886 1866.06,706.535 1887.89,709.518C1898.9,710.758 1909.59,712.317 1920.79,713.34L1953.46,715.636C1975.23,717.157 1996.97,718.999 2018.9,718.886C2040.74,718.917 2062.74,720.396 2084.43,719.197C2106.16,718.243 2127.94,717.777 2149.64,716.403L2214.46,710.133C2236.19,707.209 2257.16,703.518 2278.57,700.236C2299.87,696.922 2320.98,691.279 2342.17,686.913C2384.28,676.723 2425.84,664.498 2466.18,648.587C2486.7,641.646 2506.45,632.075 2525.99,623.266C2545.85,614.941 2564.93,604.145 2584.13,593.819C2622.53,573.091 2659.02,548.904 2694.12,522.377C2703.15,516.186 2711.65,508.621 2719.85,501.498L2744.84,479.892C2760.82,464.432 2776.92,448.842 2792.05,432.346C2806.57,415.141 2821.84,398.785 2834.81,379.99C2841.43,370.716 2848.56,362.119 2854.73,352.258L2872.95,323.324C2896.11,283.536 2916,241.096 2929.49,195.496C2942.77,150.073 2950.56,101.819 2949.97,52.902C2949.72,101.848 2941.17,149.466 2927.14,194.523C2912.97,239.423 2892.49,281.099 2868.9,319.896L2850.19,348.387C2844.07,357.755 2836.72,366.321 2830.02,375.317C2816.91,393.641 2801.39,409.484 2786.75,426.239C2771.6,442.361 2755.67,457.447 2739.71,472.575L2714.5,493.856C2705.98,501.067 2697.97,508.122 2688.92,514.126C2653.91,539.961 2617.39,563.525 2579.32,583.49C2560.27,593.43 2541.5,603.831 2521.45,611.964C2501.52,620.649 2482.24,629.743 2461.86,636.351C2441.61,643.385 2421.74,651.486 2400.9,656.61C2380.17,661.989 2359.91,669.335 2338.87,673.164C2317.86,677.395 2297.29,682.852 2275.97,686.098C2254.71,689.279 2233.18,692.934 2212.16,695.693L2147.91,701.667C2126.42,702.919 2104.81,703.297 2083.26,704.174C2061.7,705.269 2040.08,703.693 2018.49,703.619C1996.98,703.668 1975.14,701.711 1953.39,700.099L1920.74,697.687C1910.17,696.69 1899.15,695.059 1888.39,693.777C1866.73,690.753 1845.01,689.062 1823.43,684.77C1801.84,680.884 1780.16,677.458 1758.62,673.218L1694.18,659.142C1651.01,648.3 1608.43,637.515 1565.86,623.753C1523.31,610.373 1480.32,598.185 1437.43,585.806L1405.32,576.599L1397.29,574.278L1395.29,573.701L1392.91,573.13L1388.85,572.264L1372.63,568.795C1350.76,564.252 1329.82,559.286 1307.8,555.418C1263.93,546.177 1220.59,541.197 1177.01,535.251L1176.74,535.207L1176.49,535.183L1130.07,533.076L1106.86,531.948C1102.86,531.812 1099.46,531.505 1094.95,531.487L1083.36,531.429L1071.77,531.4C1068.06,531.319 1063.85,531.406 1060.03,531.674L1036.97,532.86L990.866,535.125L990.573,535.133L990.34,535.148L933.782,543.824C924.15,545.022 914.685,546.807 905.356,549.119C895.92,551.102 886.645,553.43 877.456,555.926L849.792,563.098L842.882,564.875L841.14,565.323L839.979,565.67L839.153,565.969L835.791,567.23L822.392,572.201L768.638,592.21L768.415,592.282L768.239,592.389L709.929,622.479C705.014,624.749 699.977,628.059 695.603,630.965L681.782,639.896L667.96,648.863L654.214,658.147C644.543,664.227 636.735,671.623 627.701,678.591L601.896,699.526C597.537,702.849 593.306,706.986 589.389,710.785L577.329,722.418L553.12,745.505L553.004,745.619L552.978,745.672L530.522,771.126C523.049,779.631 515.359,787.895 508.426,796.943C501.391,805.82 494.173,814.645 487.297,823.783C480.374,832.87 473.347,841.822 466.941,851.327C453.625,869.995 441.27,889.343 428.476,908.514L393.393,968.448L429.522,909.327ZM349.506,830.247C364.666,810.535 379.327,790.259 395.061,771.047C402.676,761.173 410.945,752.05 419.026,742.727C427.054,733.333 435.476,724.434 443.782,715.251C451.892,705.932 460.846,697.64 469.499,688.985L495.618,663.187L495.456,663.332L523.959,639.596L538.176,627.682C543.009,623.605 547.472,619.776 552.623,616.408L582.744,595.198C592.605,588.588 602.654,580.55 612.978,574.927L628.648,565.683L644.603,556.744L660.548,547.777C666.049,544.677 670.841,541.826 676.547,539.595L743.13,510.386L742.721,510.535L802.311,492.393L817.277,487.887C819.634,487.243 822.51,486.158 824.465,485.859L832.128,484.365L862.767,478.334C872.951,476.282 883.167,474.272 893.37,472.778C903.565,470.96 913.772,469.512 924.06,468.863L986.474,463.084L985.966,463.109L1035.17,463.435L1059.74,463.464C1064,463.441 1067.72,463.502 1071.86,463.796L1084.18,464.486L1096.5,465.166C1099.95,465.303 1104.52,465.885 1108.5,466.222L1133.14,468.547L1182.43,473.149L1181.91,473.09C1224.53,481.047 1267.7,487.569 1309.56,498.332C1330.57,502.974 1352.22,508.636 1373.25,514.16L1405.04,522.419L1436.12,532.703L1561.53,575.02L1624.47,596.654L1687.64,615.819C1730.16,627.15 1772.91,638.271 1815.78,646.29L1847.92,652.743L1880.21,657.754C1901.7,661.064 1923.21,664.754 1944.78,666.565C1987.88,671.872 2031.02,674.049 2074.1,675.692L2138.63,675.409C2160.08,674.511 2181.48,672.829 2202.87,671.562C2245.71,667.575 2287.6,662.408 2329.75,653.833C2350.97,650.573 2371.48,644.619 2392.19,639.421C2413.02,634.694 2433.24,627.741 2453.46,620.936C2463.63,617.401 2473.71,614.56 2483.86,610.477L2513.35,598.307C2523.17,594.098 2533.14,590.538 2542.77,585.814L2571.66,571.557C2591.18,562.559 2609.62,551.458 2628.17,540.574C2647.04,530.353 2664.45,517.331 2682.41,505.343C2686.89,502.201 2691.3,499.512 2695.84,495.998L2708.47,485.8L2733.75,465.399C2750.04,450.916 2766.28,436.019 2781.75,420.363C2796.5,403.929 2812.14,388.407 2825.45,370.377C2832.22,361.466 2839.51,353.242 2845.86,343.804L2864.68,315.957C2888.69,277.668 2909.45,236.602 2924.02,192.207C2938.43,147.986 2947.39,100.793 2948.21,52.662C2946.56,100.795 2936.89,147.349 2921.78,191.192C2906.58,234.866 2885.22,275.177 2860.86,312.514L2841.57,339.918C2835.26,348.9 2827.77,357.07 2820.95,365.707C2807.47,383.261 2791.64,398.277 2776.77,414.27C2761.22,429.433 2745.24,443.929 2728.92,458.094L2703.41,478.17L2690.68,488.188C2686.66,491.232 2681.89,494.133 2677.55,497.126C2659.62,508.758 2642.29,521.448 2623.46,531.369C2604.96,541.889 2586.59,552.686 2567.27,561.311L2538.65,575.03C2529.12,579.573 2518.97,583.072 2509.2,587.139L2479.57,598.94C2470,602.7 2459.54,605.52 2449.6,608.862C2429.51,615.352 2409.46,621.976 2388.74,626.422C2368.21,631.308 2347.81,636.925 2326.94,640.138C2285.77,648.388 2243.06,653.457 2201.03,657.219C2179.81,658.378 2158.64,659.97 2137.38,660.773L2073.45,660.792C2030.71,659.001 1987.97,656.681 1945.24,651.235C1923.84,649.392 1902.5,645.641 1881.17,642.27L1849.19,637.178L1817.32,630.677C1774.66,622.539 1732.63,611.365 1690.45,600.069L1627.24,581.11L1564.77,559.872L1438.98,517.967L1407.15,507.594L1375.38,499.439C1353.98,493.895 1333.23,488.583 1311.62,483.833C1268.58,472.943 1225.95,466.761 1183.07,458.908L1182.81,458.856L1182.55,458.83L1133.29,454.407L1108.64,452.174C1104.39,451.83 1100.75,451.344 1095.99,451.136L1083.68,450.492L1071.34,449.857C1067.29,449.575 1062.79,449.502 1058.87,449.581L1034.28,449.633L985.164,449.854L984.88,449.864L984.627,449.896L922.354,456.387C911.775,457.221 901.378,458.819 891.068,460.762C880.656,462.404 870.444,464.525 860.246,466.714L829.657,473.113L822.031,474.704C818.856,475.315 816.871,476.23 814.25,476.959L799.344,481.64L739.684,500.569L739.437,500.648L739.257,500.725L672.791,530.839C667.196,533.103 661.482,536.49 656.425,539.454L640.595,548.603L624.728,557.756L608.931,567.29C603.557,570.453 598.362,573.797 593.461,577.475L578.361,588.33L548.638,610.139C543.601,613.587 538.697,617.923 534.17,621.928L520.15,634.137L492.095,658.478L491.99,658.565L491.926,658.64L466.198,685.082C457.672,694.004 448.818,702.531 440.855,712.027C432.788,721.324 424.404,730.496 416.518,740.113C408.576,749.658 400.439,758.992 392.99,769.018C377.595,788.578 363.312,809.182 348.436,829.301L307.531,892.849L349.506,830.247ZM269.551,751.203C286.795,730.46 303.429,709.137 321.248,689.024C329.891,678.646 339.289,669.181 348.379,659.38C357.43,649.527 366.963,640.311 376.314,630.711C385.508,620.96 395.561,612.433 405.257,603.377L434.654,576.612L434.506,576.75L466.859,551.853L483.038,539.409C488.527,535.122 493.596,531.151 499.419,527.639L533.41,505.492L550.356,494.676C556.006,490.864 561.796,487.561 567.648,484.534L585.307,475.052L603.286,465.953L621.259,456.836C627.457,453.679 632.896,450.727 639.264,448.49L714.007,419.361L713.597,419.493L779.029,402.413L795.461,398.228C798.052,397.596 801.245,396.673 803.365,396.285L811.745,394.969L845.26,389.721C856.445,387.976 867.614,386.212 878.784,385.039C889.933,383.567 901.093,382.338 912.327,382.053L980.399,378.505L979.89,378.503L1032.05,380.679L1058.13,381.739C1062.64,381.877 1066.59,382.062 1070.97,382.552L1084.02,383.774L1097.07,385.004C1100.78,385.277 1105.59,386.075 1109.79,386.569L1135.85,390.052L1187.95,397.013L1187.49,396.933C1229.3,406.561 1271.99,414.103 1313.05,426.325L1344.13,434.778L1375.52,444.113L1406.72,453.459C1411.73,455.042 1417.51,456.484 1421.91,458.237L1437.27,463.933L1560.11,510.328L1621.51,533.74C1642.37,541.805 1662.88,547.983 1683.56,555.202C1704.12,562.551 1725.21,568.167 1746.14,574.308L1777.58,583.381L1809.18,591.003C1851.23,601.774 1893.62,609.591 1936.06,616.727L1999.82,625.505L2063.69,631.112C2084.96,632.358 2106.24,632.63 2127.5,633.438C2148.79,634.342 2169.95,632.701 2191.16,632.448C2212.42,632.422 2233.53,629.639 2254.43,628.113C2275.41,626.84 2296.33,623.457 2317.25,620.332C2327.68,618.646 2338.23,617.429 2348.55,615.36L2379.46,608.641L2410.31,601.823L2440.65,592.975L2471.11,584.033L2500.62,573.124L2530.1,562.083L2559.1,549.081C2568.69,544.619 2578.54,540.673 2587.91,535.785L2615.92,520.795C2634.89,511.372 2652.63,499.476 2670.63,488.196L2684.26,479.591L2697.04,470.005L2722.62,450.855C2739.24,437.377 2755.61,423.089 2771.4,408.346C2786.46,392.637 2802.39,378.024 2816.05,360.733C2823.04,352.221 2830.44,344.364 2837.05,335.33L2856.42,308.618C2881.25,271.789 2902.97,232.106 2918.59,188.942C2934.07,145.915 2944.25,99.772 2946.45,52.441C2943.46,99.741 2932.59,145.231 2916.46,187.848C2900.2,230.355 2877.99,269.259 2852.83,305.149L2833,331.429C2826.47,340.003 2818.86,347.814 2811.83,356.044C2797.99,372.866 2781.91,387.035 2766.74,402.257C2750.81,416.454 2734.75,430.31 2718.06,443.521L2692.3,462.389L2679.43,471.796L2666.1,479.995C2648.13,490.927 2630.47,502.529 2611.59,511.638L2583.68,526.134C2574.35,530.862 2564.6,534.636 2555.1,538.914L2526.43,551.423L2496.86,562.091L2467.22,572.641L2437.26,581.047L2407.15,589.452L2376.5,595.844L2345.85,602.151C2335.62,604.077 2325.23,605.138 2314.89,606.688C2294.27,609.602 2273.74,612.952 2252.61,614.143C2231.5,615.604 2210.86,618.273 2189.8,618.195C2168.78,618.354 2147.85,619.903 2126.76,618.933C2105.68,618.048 2084.6,617.707 2063.52,616.396L2000.21,610.622L1937.01,601.64C1894.97,594.425 1852.9,586.521 1811.22,575.669L1779.92,568.003L1748.86,558.916C1728.17,552.769 1707.42,547.198 1686.83,539.714C1666.31,532.544 1645.26,525.916 1625.18,518.305L1563.74,495.109L1440.65,449.136L1425.26,443.464C1419.43,441.255 1414.7,440.201 1409.33,438.523L1378.11,429.277L1347.05,420.179L1315.44,411.694C1273.24,399.332 1231.28,392.146 1189.09,382.56L1188.84,382.527L1188.58,382.493L1136.45,375.713L1110.38,372.35C1105.89,371.836 1102,371.13 1096.99,370.743L1083.96,369.579L1070.9,368.404C1066.6,367.906 1061.86,367.718 1057.68,367.605L1031.59,366.618L979.448,364.657L979.143,364.654L978.92,364.69L910.893,368.919C899.337,369.366 888.009,370.721 876.715,372.34C865.344,373.671 854.199,375.569 843.005,377.451L809.504,383.089L801.163,384.494C797.745,385.193 795.504,385.945 792.646,386.671L776.252,391.064L710.702,408.97L710.482,409.025L710.291,409.102L635.627,439.213C629.369,441.456 622.977,444.966 617.236,447.989L599.36,457.296L581.474,466.638L563.682,476.464C557.627,479.695 551.753,483.135 546.181,486.967L529.071,498.187L495.362,520.787C489.693,524.356 484.092,528.896 478.91,533.093L462.967,545.892L431.051,571.447L430.953,571.555L430.901,571.604L401.907,599.107C392.31,608.398 382.32,617.22 373.307,627.143C364.16,636.881 354.694,646.401 345.801,656.497C336.82,666.517 327.571,676.223 319.119,686.765C301.672,707.259 285.336,729.02 268.482,750.109L221.703,817.246L269.551,751.203ZM190.998,670.714C210.668,648.364 229.893,625.605 250.229,604.074C260.204,593.056 270.994,583.07 281.324,572.542L313.233,542.072C323.987,531.999 335.351,522.893 346.358,513.26C357.463,504.047 368.498,493.705 379.977,485.521L415.361,460.05C427.383,451.577 438.602,442.832 451.245,435.717L488.162,413.316C500.63,406.021 513.004,398.344 525.777,392.394C538.245,385.914 551.759,379.921 564.654,373.886L584.211,364.782L593.975,360.26L603.847,356.733L644.361,342.289L684.888,328.31L684.478,328.441L719.974,320.196L755.759,312.378L773.637,308.493L782.264,306.609L791.375,305.471L827.804,301.041C839.927,299.595 852.049,298.039 864.175,297.204C876.309,296.121 888.416,295.108 900.577,295.194L974.292,293.746L973.817,293.73L1028.95,297.878L1056.55,299.961C1061.29,300.343 1065.47,300.594 1070.11,301.276L1083.89,303.055L1097.66,304.816L1101.09,305.256L1104.24,305.78L1111.1,306.929L1138.59,311.514L1193.55,320.886L1193.08,320.77L1255.1,336.517L1286.12,344.462L1316.65,353.87C1357.02,366.011 1398.99,380.055 1438.68,394.301L1559.02,444.022L1619.07,469.339C1629.21,473.555 1638.78,477.874 1649.39,481.976L1679.74,493.414C1699.95,501.154 1720.18,508.84 1740.87,515.245C1761.47,521.742 1781.91,529.408 1802.68,534.723C1823.41,540.347 1844.03,546.706 1864.83,551.672L1927.35,566.033L1990.21,577.274C2011.19,580.719 2032.23,582.774 2053.25,585.577C2095.29,589.877 2137.41,593.022 2179.4,592.745C2189.96,592.713 2200.3,593.264 2211.02,592.772L2242.21,591.319L2273.43,589.751L2304.62,586.289L2335.83,582.812L2366.62,577.494L2397.39,572.017C2407.59,569.966 2417.63,567.11 2427.74,564.688L2458.05,557.105C2468.34,554.271 2477.85,550.789 2487.81,547.645L2517.32,538.003L2546.42,526.413L2575.42,514.568L2603.61,500.868C2622.63,492.257 2640.68,481.511 2658.81,470.961L2672.41,463.094C2677.11,460.128 2681.15,457.113 2685.53,454.144L2711.43,436.229C2728.39,423.795 2744.84,410.026 2761.02,396.261C2792.38,367.503 2822.51,336.264 2848.19,301.275C2873.83,265.929 2896.49,227.619 2913.19,185.67C2929.77,143.824 2941.14,98.761 2944.71,52.193C2940.36,98.706 2928.35,143.13 2911.16,184.524C2893.89,225.816 2870.76,263.38 2844.77,297.782C2818.4,332.375 2788.38,362.204 2756.71,390.217C2748.82,397.241 2740.3,403.287 2732.16,409.872C2723.77,416.147 2716.06,423.29 2707.17,428.878L2681.12,446.486C2676.8,449.363 2672.34,452.562 2668.17,455.116L2654.6,462.739C2636.54,472.992 2618.59,483.427 2599.63,491.721L2571.59,504.987L2542.88,516.344L2514.06,527.453L2484.41,536.77C2474.58,539.757 2464.57,543.238 2454.87,545.778L2424.81,552.931C2414.79,555.217 2404.82,557.925 2394.7,559.865L2364.17,564.912L2333.63,569.837L2302.83,572.932L2272.06,576.013L2240.85,577.408L2209.61,578.763C2199.51,579.205 2188.9,578.62 2178.57,578.597C2137,578.727 2095.26,575.475 2053.61,571.049C2032.8,568.182 2011.95,566.068 1991.15,562.582L1928.88,551.215L1866.89,536.758C1846.27,531.739 1825.81,525.356 1805.28,519.73C1784.68,514.355 1764.56,506.72 1744.19,500.227C1723.86,493.851 1703.63,486.118 1683.43,478.286L1653.11,466.752C1643.51,462.985 1633.2,458.348 1623.31,454.201L1563.16,428.815L1442.55,379.446C1400.94,364.663 1361.17,351.546 1319.36,339.095L1288.29,329.636L1257.25,321.818L1195.09,306.245L1194.84,306.185L1194.61,306.163L1139.59,297.016L1112.09,292.512L1105.21,291.398L1101.46,290.804L1098.02,290.362L1084.24,288.648L1070.45,286.942C1065.91,286.263 1060.87,285.936 1056.46,285.626L1028.91,283.641L973.734,279.691L973.455,279.664L973.221,279.68L899.436,281.424C886.954,281.49 874.648,282.643 862.38,283.893C850.037,284.875 837.914,286.57 825.774,288.153L789.38,293.023L780.258,294.241L771.017,296.334L753.163,300.424L717.469,308.662L681.718,317.382L681.486,317.425L681.303,317.512L640.643,332.048L600.31,346.914C586.148,351.562 574.031,358.894 560.767,364.751C547.698,371.052 534.977,376.851 521.96,383.787C508.686,390.172 496.56,397.927 484.148,405.36L447.16,428.372C434.641,435.53 422.925,444.922 411.357,453.501L376.38,479.71C364.369,488.675 354.083,498.774 342.833,508.458C331.941,518.375 320.655,527.805 310.086,538.088L278.624,569.311C268.443,580.089 257.795,590.371 248.004,601.561C228.017,623.508 209.137,646.748 189.872,669.493C171.562,693.327 153.838,717.56 135.819,741.634C154.192,717.967 172.404,694.029 190.998,670.714ZM50,666.032L80.081,627.836C90.247,615.224 100.005,602.281 110.494,589.933L142.567,553.867C153.13,541.696 164.311,530.207 175.251,518.474C197.546,495.514 220.859,473.541 244.253,452.012C256.086,441.405 268.441,431.448 280.542,421.126C292.976,411.06 304.336,400.362 317.676,391.285L356.248,364.048C368.988,355.141 382.077,345.689 395.771,338.249L436.413,314.504C450.02,306.849 463.473,298.999 477.934,292.484C492.19,285.386 506.195,279.561 520.497,273.135L541.82,263.698L552.515,258.984L563.772,255.139L607.885,240.27C622.866,235.09 637.489,230.734 652.307,225.912L652.495,225.854L652.733,225.801L691.409,217.465L730.076,209.802L749.387,205.968L759.053,204.052L769.199,202.93L808.501,198.821C821.649,197.565 834.727,196.023 848.06,195.476L867.951,194.272C874.576,193.817 881.315,194.183 887.984,194.095L967.512,194.677L967.757,194.682L968.009,194.696C1014.24,199.814 1060.51,202.717 1107.21,211.375L1176.26,224.927L1193.54,228.386C1196.62,229.096 1198.86,229.316 1202.61,230.363L1211.14,232.777L1245.36,242.456C1290.77,254.433 1336.65,270.295 1381.47,285.999L1448.66,310.81L1515.08,340.172C1559.17,359.908 1603.05,379.968 1646.7,400.738C1690.03,420.587 1734.82,439.202 1779.2,455.236C1868.45,487.594 1959.75,511.984 2051.63,526.272C2097.57,533.461 2143.66,537.793 2189.68,539.598C2212.38,540.779 2235.71,539.785 2258.69,540.143C2281.68,539.595 2304.34,537.644 2327.17,536.473C2349.8,533.73 2372.51,531.222 2395.05,527.82C2417.26,523.079 2440.02,519.927 2461.82,513.858C2483.79,507.689 2506.29,502.625 2527.47,494.539L2559.71,483.424L2591.21,470.12C2612.51,461.864 2632.47,450.518 2652.95,440.303C2662.95,435.508 2672.62,428.485 2682.49,422.672C2692.16,416.435 2702.42,410.914 2711.49,403.823C2749.51,378.029 2784.79,346.974 2817.09,312.89C2849.52,278.297 2877.07,238.871 2899.25,195.151C2904.93,184.43 2909.39,172.689 2914.52,161.48C2918.67,149.764 2923.44,138.322 2926.85,126.222C2930.64,114.281 2933.78,102.035 2936.65,89.734L2942.94,51.961L2937.24,89.903C2934.56,102.321 2931.61,114.649 2928,126.743C2924.76,138.93 2920.15,150.586 2916.15,162.479C2911.19,173.813 2906.98,185.513 2901.38,196.568C2879.93,240.837 2852.38,281.716 2820.64,316.789C2788.47,352.001 2753.67,383.841 2715.48,410.897C2706.26,418.293 2696.17,423.781 2686.52,430.187C2676.57,436.184 2667.46,443.021 2656.8,448.359C2636.28,458.901 2616.2,470.584 2594.83,479.136L2563.13,492.932L2530.57,504.596C2508.99,513.028 2486.79,518.298 2464.81,524.733C2442.58,531.174 2419.85,534.569 2397.35,539.651C2374.65,543.328 2351.74,546.117 2328.88,549.134C2305.79,550.585 2282.7,552.786 2259.61,553.598C2236.44,553.576 2213.73,554.67 2190.19,553.536C2143.73,551.858 2097.19,547.68 2050.79,540.578C1958,526.486 1866,502.255 1775.79,469.891C1730.37,453.628 1686.44,435.532 1642.06,415.407C1598.42,394.731 1554.49,375.1 1510.7,355.292L1445.1,325.981L1377.96,300.937C1332.89,284.978 1288.73,269.517 1242.79,257.22L1208.74,247.444L1200.22,245.003C1198.28,244.406 1194.73,243.82 1192.05,243.229L1174.82,239.729L1105.86,225.912C1060.38,217.32 1013.97,214.206 967.763,208.924L968.227,208.947L888.862,208.081C882.306,208.147 875.758,207.77 869.207,208.187L849.586,209.27C836.496,209.848 823.413,211.14 810.342,212.267L771.013,215.947L761.546,216.871L751.871,218.675L732.498,222.307L693.761,229.525L655.371,237.372L655.777,237.268C641.044,241.869 625.907,246.233 611.491,251.023L567.239,265.431L556.449,268.929L545.716,273.537L524.289,282.71C510.167,288.863 495.408,294.821 481.728,301.513C467.688,307.602 454.08,315.331 440.407,322.856L399.802,345.968C385.976,353.279 373.463,362.159 360.346,371.118L321.376,397.535C308.579,405.823 296.436,416.742 284.122,426.324C271.936,436.339 259.484,445.978 247.495,456.324C223.699,477.429 200.252,498.692 177.572,521.203C166.438,532.725 155.083,543.913 144.313,555.901L111.663,591.289C101.082,603.282 91.026,616.103 80.693,628.49L50,666.032Z" style="fill:url(#_Linear1);"/>
        <path d="M506.747,455.471C494.406,424.815 480.959,394.413 467.304,364.389C467.259,364.281 467.179,364.179 467.158,364.064C488.103,363.461 508.299,375.14 516.806,393.681C526.246,414.24 519.719,435.501 508.393,453.466C507.853,454.126 507.307,454.795 506.747,455.471ZM457.383,487.614C426.777,497.286 393.985,493.171 369.01,473.305C343.227,452.787 335.711,417.377 340.526,385.77C345.231,354.721 359.033,329.769 375.967,303.452C381.458,294.918 387.172,286.664 393.028,278.455C397.425,272.48 401.917,266.592 406.392,260.692C408.332,258.559 410.293,256.42 412.279,254.292C419.999,285.647 432.649,315.77 445.783,345.105C446.274,346.197 446.733,347.284 447.227,348.385C446.726,347.264 427.528,359.099 425.865,360.455C408.103,374.92 399.537,399.809 405.682,421.463C407.614,426.815 410.628,431.699 414.723,435.011C421.539,440.514 430.643,441.652 438.864,439.398C438.762,439.367 438.745,439.254 438.613,439.236C426.059,437.627 419.212,433.629 414.025,422.094C409.616,412.318 411.03,401.677 415.905,392.304C423.371,377.996 439.079,369.201 454.873,365.729C468.674,397.169 482.168,428.698 497.369,459.488C501.196,467.319 462.387,486.012 457.383,487.614ZM411.185,193.196C411.688,183.398 413.361,173.207 417.517,164.415C421.326,156.429 427.134,149.575 435.971,145.209C449.296,142.524 459.516,147.473 458.062,163.883C457.11,174.53 453.442,183.913 448.987,193.544C445.489,201.201 441.334,208.226 436.793,214.903C434.856,217.435 432.905,219.964 430.988,222.443C426.749,227.883 422.551,233.329 418.391,238.798C417.91,239.438 417.364,240.071 416.702,240.567C416.541,240.703 416.559,240.918 416.571,241.077C410.937,227.188 410.466,208.027 411.185,193.196ZM530.517,507.53C524.438,492.566 517.841,476.46 509.399,462.064C509.267,461.761 509.167,461.498 509.046,461.223C530.117,437.363 540.358,405.449 526.49,375.083C516.413,353.062 495.496,344.128 473.624,344.813C468.657,344.403 463.699,344.678 458.862,345.432C456.026,339.045 453.176,332.656 450.374,326.256C447.747,320.035 445.042,313.851 442.268,307.694C438.329,298.674 434.335,289.683 430.34,280.701C426.384,271.457 422.72,262.102 419.542,252.571C419.122,251.044 418.695,249.508 418.309,247.968C420.272,245.911 422.223,243.872 424.187,241.844C433.895,231.921 442.337,221.247 449.963,209.95C452.361,207.007 454.764,204.065 457.099,201.076C466.567,188.826 479.264,172.511 481.074,156.731C483.003,140.05 472.934,129.642 456.536,130.111C439.425,130.616 427.774,139.128 417.725,152.181C411.151,160.675 407.195,171.408 405.091,182.717C401.881,199.888 403.794,217.341 408.07,234.309C408.904,239.1 409.842,243.914 410.883,248.641C408.23,252.142 405.617,255.63 402.98,259.189C374.373,289.428 347.464,324.394 333.911,363.675C323.575,393.772 318.206,432.146 332.91,461.427C351.782,499.084 395.236,512.842 435.66,504.632C446.071,502.5 457.449,499.254 466.973,494.479C470.908,492.514 503.493,472.311 501.772,468.745C505.772,477.052 509.706,485.405 513.505,493.834C535.204,541.791 557.616,617.342 513.432,660.657C493.13,680.556 464.112,694.906 434.062,693.88C415.788,693.261 398.044,687.196 384.015,675.769C373.817,667.446 365.619,655.405 360.815,642.469C379.292,651.304 402.423,647.979 417.022,633.182C430.293,619.663 431.264,598.914 421.871,583.044C410.513,563.806 391.479,560.626 374.85,562.988C356.593,565.601 342.683,582.062 337.284,598.991C330.087,621.412 339.442,645.274 352.896,663.129C365.134,679.328 381.087,690.016 398.577,695.622C406.219,699.937 415.183,702.749 426.057,703.297C458.315,704.89 496.214,690.306 518.921,666.994C543.047,642.211 551.968,602.546 548.874,570.002C546.824,548.552 538.578,527.317 530.517,507.53Z" style="fill:rgb(64,64,64);fill-rule:nonzero;"/>
        <path d="M2191.43,560.666C2184.92,544.47 2177.81,528.408 2170.61,512.566C2170.58,512.506 2170.55,512.456 2170.52,512.396C2181.59,512.073 2192.26,518.227 2196.74,528.032C2201.74,538.902 2198.28,550.137 2192.31,559.606C2192.01,559.947 2191.72,560.315 2191.43,560.666ZM2165.35,577.642C2149.19,582.75 2131.87,580.58 2118.67,570.096C2105.06,559.243 2101.1,540.549 2103.64,523.855C2106.13,507.461 2113.41,494.295 2122.35,480.375C2125.26,475.879 2128.29,471.501 2131.37,467.186C2133.7,464.022 2136.07,460.908 2138.43,457.785C2139.44,456.668 2140.5,455.529 2141.55,454.436C2145.61,470.978 2152.29,486.882 2159.23,502.385C2159.48,502.954 2159.74,503.534 2160,504.106C2159.73,503.524 2149.6,509.765 2148.71,510.481C2139.34,518.117 2134.81,531.255 2138.06,542.711C2139.07,545.528 2140.65,548.104 2142.84,549.872C2146.42,552.766 2151.24,553.379 2155.58,552.18C2155.53,552.146 2155.51,552.097 2155.45,552.081C2148.82,551.23 2145.2,549.126 2142.46,543.038C2140.14,537.867 2140.86,532.253 2143.46,527.309C2147.39,519.747 2155.69,515.107 2164.02,513.266C2171.28,529.817 2178.4,546.393 2186.38,562.619C2186.39,562.636 2186.41,562.68 2186.47,562.801C2188.51,566.918 2168,576.785 2165.35,577.642ZM2140.97,422.141C2141.22,416.972 2142.11,411.574 2144.31,406.949C2146.28,402.71 2149.38,399.101 2154.04,396.806C2161.09,395.398 2166.49,398.003 2165.72,406.656C2165.21,412.28 2163.28,417.237 2160.95,422.335C2159.08,426.366 2156.89,430.075 2154.48,433.619C2153.43,434.961 2152.43,436.292 2151.41,437.602C2149.18,440.466 2146.96,443.358 2144.77,446.225C2144.5,446.579 2144.21,446.893 2143.87,447.162C2143.78,447.253 2143.81,447.35 2143.81,447.451C2140.84,440.092 2140.58,429.983 2140.97,422.141ZM2203.98,588.175C2200.78,580.242 2197.28,571.741 2192.82,564.143C2192.77,563.988 2192.72,563.861 2192.64,563.721C2203.76,551.105 2209.19,534.262 2201.86,518.211C2196.54,506.574 2185.49,501.84 2173.91,502.219C2171.31,502.016 2168.7,502.155 2166.15,502.561C2164.64,499.179 2163.14,495.781 2161.66,492.432C2160.29,489.143 2158.84,485.862 2157.37,482.625C2155.3,477.866 2153.21,473.104 2151.06,468.38C2148.99,463.472 2147.04,458.543 2145.39,453.524C2145.17,452.7 2144.93,451.881 2144.72,451.086C2145.75,450 2146.79,448.915 2147.81,447.855C2152.97,442.599 2157.41,436.945 2161.43,430.995C2162.7,429.45 2164,427.898 2165.2,426.307C2170.22,419.84 2176.9,411.213 2177.86,402.89C2178.89,394.076 2173.58,388.578 2164.91,388.83C2155.88,389.098 2149.72,393.593 2144.4,400.501C2140.94,404.98 2138.86,410.648 2137.74,416.609C2136.04,425.685 2137.05,434.914 2139.32,443.854C2139.76,446.402 2140.24,448.935 2140.79,451.441C2139.41,453.268 2138.01,455.139 2136.62,457.001C2121.52,472.982 2107.3,491.439 2100.16,512.203C2094.69,528.076 2091.85,548.349 2099.63,563.804C2109.59,583.71 2132.54,590.976 2153.88,586.631C2159.37,585.51 2165.39,583.8 2170.44,581.279C2172.51,580.246 2189.71,569.564 2188.81,567.662C2190.91,572.073 2193,576.473 2194.99,580.936C2206.46,606.259 2218.29,646.156 2194.98,669.047C2184.26,679.532 2168.92,687.126 2153.05,686.591C2143.39,686.248 2134.04,683.062 2126.6,677.014C2121.2,672.633 2116.91,666.277 2114.34,659.444C2124.13,664.096 2136.32,662.354 2144.04,654.53C2151.07,647.391 2151.55,636.424 2146.61,628.04C2140.62,617.881 2130.55,616.2 2121.76,617.453C2112.12,618.826 2104.78,627.525 2101.91,636.458C2098.12,648.314 2103.04,660.905 2110.19,670.328C2116.62,678.889 2125.07,684.541 2134.3,687.519C2138.33,689.797 2143.07,691.268 2148.83,691.562C2165.87,692.397 2185.88,684.686 2197.86,672.377C2210.6,659.287 2215.3,638.352 2213.68,621.177C2212.6,609.831 2208.23,598.625 2203.98,588.175Z" style="fill:rgb(64,64,64);fill-rule:nonzero;"/>
        <path d="M1995.36,616.38C1989.26,590.691 1980.45,565.63 1973.02,540.319C1965.23,513.739 1956.61,487.365 1948.3,460.921C1948.23,460.412 1948.12,459.887 1948.02,459.394C1947.92,459.308 1947.81,459.227 1947.73,459.125C1947.56,458.659 1947.43,458.233 1947.29,457.771C1947.12,456.916 1946.94,456.079 1946.75,455.221C1946.65,455.171 1946.55,455.084 1946.44,455.07C1946.37,454.792 1946.1,454.793 1945.91,454.943C1919.66,449.725 1903.99,445.561 1882.21,441.724C1863.61,438.452 1848.06,434.451 1820.18,430.436C1820.04,429.907 1819.2,430.482 1819.32,430.933C1819.32,430.933 1819.33,430.943 1819.32,430.961C1819.29,430.984 1819.29,430.984 1819.27,431C1819.4,431.425 1819.53,431.867 1819.68,432.294C1826.98,459.744 1833.64,487.323 1841.03,514.739C1844.59,528.106 1848.26,541.44 1852.23,554.693C1855.05,564.214 1857.26,574.168 1860.08,583.849C1853.55,581.144 1845.65,581.781 1839.61,585.426C1830.65,590.886 1822.85,600.125 1818.83,609.564C1815.14,618.057 1810.88,629.445 1813.89,638.584C1817.28,648.781 1828.3,655.742 1839.11,653.652C1851.51,651.28 1859.76,639.999 1865.33,629.737C1870.27,620.612 1872.51,610.134 1871.37,599.954C1871.01,596.718 1870.25,594.025 1869.11,591.791C1863.01,566.08 1854.2,541.031 1846.77,515.686C1839.01,489.22 1830.41,462.96 1822.14,436.622C1841.88,441.191 1861.54,446.287 1881.36,450.626C1892.01,452.984 1902.72,455.184 1913.49,457.004C1924.75,458.906 1935.93,462.926 1947.55,463.117C1954.22,488.495 1960.47,513.984 1967.28,539.352C1970.86,552.74 1974.54,566.04 1978.46,579.332C1981.31,588.828 1983.52,598.778 1986.33,608.458C1979.81,605.764 1971.9,606.392 1965.88,610.043C1956.92,615.485 1949.13,624.744 1945.08,634.188C1941.41,642.701 1937.13,654.059 1940.16,663.191C1943.54,673.388 1954.56,680.366 1965.36,678.293C1977.77,675.905 1986.01,664.594 1991.58,654.342C1996.52,645.226 1998.78,634.77 1997.65,624.563C1997.26,621.329 1996.51,618.624 1995.36,616.38Z" style="fill:rgb(64,64,64);fill-rule:nonzero;"/>
        <path d="M2852.44,389.569C2850.97,383.332 2848.84,377.245 2847.04,371.102C2845.16,364.68 2843.07,358.309 2841.07,351.921C2841.05,351.798 2841.02,351.671 2841,351.552C2840.98,351.531 2840.95,351.512 2840.93,351.487C2840.89,351.375 2840.86,351.272 2840.82,351.16C2840.78,350.954 2840.74,350.751 2840.69,350.544C2840.67,350.532 2840.65,350.511 2840.62,350.507C2840.6,350.44 2840.54,350.441 2840.49,350.477C2834.15,349.216 2830.36,348.21 2825.1,347.283C2820.61,346.493 2816.85,345.526 2810.12,344.556C2810.08,344.429 2809.88,344.568 2809.91,344.676L2809.91,344.683C2809.9,344.689 2809.9,344.689 2809.9,344.693C2809.93,344.795 2809.96,344.902 2809.99,345.005C2811.76,351.637 2813.37,358.299 2815.15,364.922C2816.01,368.151 2816.9,371.373 2817.86,374.574C2818.54,376.88 2819.09,379.284 2819.77,381.627C2818.19,380.965 2816.27,381.114 2814.81,381.999C2812.65,383.318 2810.76,385.549 2809.79,387.83C2808.9,389.882 2807.87,392.632 2808.6,394.84C2809.42,397.304 2812.08,398.985 2814.69,398.48C2817.69,397.908 2819.68,395.182 2821.02,392.703C2822.22,390.499 2822.76,387.968 2822.48,385.508C2822.39,384.718 2822.2,384.074 2821.92,383.531C2820.44,377.324 2818.33,371.271 2816.54,365.151C2814.66,358.758 2812.59,352.414 2810.59,346.051C2815.36,347.155 2820.11,348.386 2824.9,349.434C2827.47,350.004 2830.05,350.535 2832.66,350.975C2835.38,351.434 2838.08,352.405 2840.88,352.451C2842.5,358.582 2844.01,364.74 2845.65,370.868C2846.52,374.102 2847.41,377.315 2848.35,380.527C2849.04,382.826 2849.59,385.229 2850.27,387.572C2848.69,386.912 2846.77,387.06 2845.31,387.945C2843.15,389.26 2841.27,391.497 2840.29,393.778C2839.4,395.835 2838.37,398.579 2839.1,400.785C2839.92,403.248 2842.58,404.934 2845.19,404.433C2848.19,403.856 2850.18,401.124 2851.52,398.647C2852.71,396.445 2853.26,393.919 2852.99,391.453C2852.9,390.702 2852.7,390.098 2852.44,389.569Z" style="fill:rgb(64,64,64);fill-rule:nonzero;"/>
        <path d="M788.182,496.203C783.633,476.943 777.021,458.186 771.469,439.212C765.629,419.357 759.182,399.652 752.989,379.907C752.917,379.537 752.858,379.141 752.789,378.753C752.675,378.701 752.622,378.647 752.565,378.547C752.437,378.225 752.342,377.889 752.269,377.564C752.118,376.915 751.97,376.276 751.838,375.657C751.753,375.609 751.676,375.525 751.615,375.526C751.543,375.304 751.34,375.332 751.19,375.452C731.573,371.528 719.903,368.435 703.603,365.575C689.719,363.135 678.107,360.122 657.256,357.11C657.14,356.726 656.539,357.146 656.62,357.481L656.626,357.509C656.622,357.537 656.603,357.543 656.575,357.539C656.69,357.86 656.791,358.188 656.894,358.497C662.329,379.004 667.335,399.62 672.828,420.115C675.515,430.109 678.274,440.049 681.203,449.964C683.333,457.083 684.994,464.525 687.103,471.765C682.214,469.722 676.312,470.179 671.809,472.903C665.089,477.01 659.272,483.899 656.253,490.943C653.504,497.3 650.325,505.804 652.584,512.643C655.103,520.246 663.336,525.453 671.381,523.909C680.663,522.108 686.83,513.672 690.995,506.01C694.678,499.202 696.37,491.383 695.512,483.774C695.253,481.414 694.679,479.472 693.86,477.829C689.323,458.583 682.692,439.789 677.122,420.817C671.335,401.043 664.905,381.414 658.741,361.738C673.508,365.173 688.167,368.974 702.964,372.219C710.943,373.959 718.909,375.623 726.987,376.97C735.395,378.377 743.758,381.39 752.432,381.546C757.402,400.52 762.076,419.566 767.159,438.499C769.83,448.473 772.564,458.456 775.523,468.356C777.662,475.461 779.312,482.901 781.417,490.138C776.527,488.115 770.616,488.58 766.126,491.322C759.43,495.386 753.602,502.292 750.593,509.328C747.862,515.688 744.641,524.196 746.885,531.042C749.425,538.666 757.658,543.836 765.756,542.27C775.001,540.503 781.168,532.075 785.319,524.412C789.012,517.595 790.698,509.785 789.856,502.16C789.584,499.804 789.007,497.858 788.182,496.203Z" style="fill:rgb(64,64,64);fill-rule:nonzero;"/>
        <path d="M1108,520.578C1096.85,518.607 1085.55,517.207 1074.3,515.675C1073.27,512.396 1072.22,509.111 1071.18,505.828C1092.45,509.571 1125.7,515.318 1138.58,516.897C1139.43,520.034 1140.24,523.166 1141.06,526.272C1130.25,523.43 1118.99,522.5 1108,520.578ZM1165.52,603.6C1162.16,589.388 1157.3,575.538 1153.18,561.534C1148.55,545.798 1143.42,530.189 1138.53,514.531C1138.47,514.337 1138.3,514.389 1138.18,514.493C1138.17,514.483 1138.15,514.453 1138.16,514.417C1119.5,510.036 1048.61,498.668 1037.26,496.688C1025.71,494.665 1013.98,493.238 1002.34,491.601C1002.35,491.658 1002.36,491.696 1002.36,491.724C1002.09,491.698 1001.84,491.656 1001.59,491.614C1005.48,506.366 1009.08,521.153 1013.04,535.904C1015.01,543.259 1017.05,550.607 1019.21,557.922C1020.78,563.183 1022,568.68 1023.55,574.023C1019.94,572.545 1015.59,572.878 1012.27,574.891C1007.31,577.875 1003.03,582.979 1000.8,588.173C998.781,592.896 996.418,599.165 998.082,604.186C999.956,609.836 1006.02,613.684 1011.97,612.513C1018.84,611.192 1023.38,604.977 1026.44,599.318C1029.16,594.289 1030.43,588.514 1029.78,582.896C1029.59,581.135 1029.16,579.692 1028.54,578.467C1025.18,564.275 1020.3,550.423 1016.2,536.42C1012.09,522.297 1007.93,508.435 1003.58,494.41C1013.79,496.324 1047.28,501.686 1052.69,502.59C1054.48,502.898 1061.3,504.108 1070.42,505.683C1074.21,520.069 1077.75,534.534 1081.59,548.89C1083.59,556.268 1085.59,563.601 1087.79,570.931C1089.36,576.183 1090.58,581.68 1092.13,587.017C1088.53,585.52 1084.16,585.856 1080.84,587.87C1075.91,590.878 1071.6,595.985 1069.37,601.171C1067.32,605.872 1064.98,612.163 1066.66,617.204C1068.51,622.832 1074.57,626.661 1080.53,625.51C1087.4,624.189 1091.95,617.985 1095,612.333C1097.74,607.278 1098.98,601.51 1098.35,595.894C1098.15,594.142 1097.72,592.702 1097.11,591.481C1093.76,577.274 1088.87,563.432 1084.77,549.418C1081.6,538.564 1078.15,527.804 1074.73,517.029C1085.18,519.454 1095.54,522.126 1106.03,524.417C1111.93,525.719 1117.81,526.934 1123.78,527.947C1129.88,528.979 1136.01,531.144 1142.34,531.306C1144.88,541.218 1147.35,551.118 1150.02,561.018C1151.98,568.391 1154,575.736 1156.21,583.048C1157.76,588.294 1158.99,593.795 1160.54,599.14C1156.93,597.645 1152.57,597.983 1149.26,600.005C1144.31,603.012 1140,608.109 1137.76,613.303C1135.76,618.019 1133.39,624.297 1135.06,629.31C1136.92,634.939 1143.02,638.784 1148.95,637.636C1155.8,636.314 1160.34,630.098 1163.4,624.439C1166.14,619.403 1167.38,613.653 1166.74,607.998C1166.55,606.251 1166.13,604.819 1165.52,603.6Z" style="fill:rgb(64,64,64);fill-rule:nonzero;"/>
        <path d="M2390.07,599.843C2378.93,597.884 2367.61,596.483 2356.36,594.943C2355.33,591.671 2354.29,588.388 2353.24,585.104C2374.51,588.828 2407.74,594.564 2420.65,596.174C2421.49,599.309 2422.31,602.415 2423.11,605.546C2412.33,602.708 2401.05,601.774 2390.07,599.843ZM2447.57,682.844C2444.21,668.648 2439.35,654.807 2435.26,640.822C2430.63,625.076 2425.47,609.464 2420.58,593.805C2420.53,593.604 2420.37,593.657 2420.23,593.767C2420.23,593.75 2420.23,593.73 2420.21,593.701C2401.56,589.294 2330.66,577.952 2319.32,575.956C2307.76,573.922 2296.05,572.534 2284.41,570.878C2284.42,570.935 2284.43,570.955 2284.41,570.999C2284.15,570.974 2283.91,570.924 2283.64,570.879C2287.55,585.614 2291.16,600.421 2295.1,615.162C2297.06,622.544 2299.1,629.881 2301.29,637.2C2302.85,642.458 2304.07,647.961 2305.63,653.31C2302.01,651.815 2297.65,652.142 2294.34,654.158C2289.38,657.162 2285.09,662.254 2282.86,667.459C2280.82,672.151 2278.49,678.424 2280.15,683.462C2282.03,689.105 2288.07,692.941 2294.05,691.791C2300.91,690.47 2305.46,684.255 2308.5,678.603C2311.21,673.554 2312.49,667.79 2311.86,662.173C2311.66,660.437 2311.23,659.008 2310.63,657.793C2307.27,643.577 2302.39,629.719 2298.27,615.706C2294.17,601.557 2289.99,587.702 2285.64,573.686C2295.85,575.599 2329.34,580.943 2334.78,581.86C2336.54,582.174 2343.35,583.372 2352.48,584.967C2356.29,599.348 2359.8,613.799 2363.65,628.148C2365.66,635.535 2367.66,642.86 2369.85,650.207C2371.42,655.456 2372.63,660.95 2374.19,666.288C2370.58,664.8 2366.21,665.141 2362.9,667.155C2357.95,670.17 2353.66,675.26 2351.41,680.453C2349.4,685.158 2347.04,691.42 2348.72,696.48C2350.56,702.088 2356.63,705.957 2362.61,704.779C2369.44,703.462 2374.02,697.234 2377.06,691.599C2379.79,686.544 2381.03,680.775 2380.44,675.173C2380.22,673.42 2379.79,671.981 2379.18,670.761C2375.83,656.542 2370.93,642.684 2366.83,628.685C2363.66,617.831 2360.23,607.082 2356.78,596.284C2367.25,598.73 2377.6,601.401 2388.09,603.702C2393.98,604.993 2399.87,606.228 2405.82,607.221C2411.97,608.24 2418.08,610.411 2424.39,610.572C2426.92,620.491 2429.42,630.414 2432.08,640.285C2434.05,647.668 2436.07,655.022 2438.27,662.333C2439.82,667.57 2441.04,673.072 2442.6,678.414C2438.99,676.924 2434.63,677.27 2431.32,679.263C2426.36,682.277 2422.07,687.368 2419.84,692.573C2417.81,697.285 2415.45,703.545 2417.13,708.596C2418.99,714.217 2425.08,718.06 2431.02,716.905C2437.86,715.598 2442.4,709.365 2445.48,703.726C2448.22,698.681 2449.45,692.92 2448.82,687.286C2448.61,685.514 2448.18,684.067 2447.57,682.844Z" style="fill:rgb(64,64,64);fill-rule:nonzero;"/>
        <path d="M2740.28,394.807C2742.23,396.287 2744.54,395.539 2747.77,394.76C2750.84,394.03 2753.81,393.713 2756.86,394.033C2759.44,394.302 2762.07,394.963 2764.19,396.491C2766.78,398.422 2767.3,401.48 2768.04,404.382C2767.25,403.603 2766.4,402.904 2765.36,402.44C2761.24,400.605 2756.55,401.111 2751.99,400.513C2747.84,399.968 2744.06,398.903 2740.97,396.978C2740.74,396.254 2740.51,395.53 2740.28,394.807ZM2751.11,406.848C2754.2,406.095 2757.17,405.784 2760.22,406.117C2764.63,406.59 2767.09,408.256 2770.1,411.151C2769.52,408.004 2769.27,404.834 2768.58,401.703C2768.2,399.877 2767.73,398.101 2767.15,396.348C2766.59,394.938 2765.86,393.572 2764.92,392.422C2764.07,391.573 2763.13,390.849 2762.01,390.35C2757.89,388.546 2753.2,389.034 2748.64,388.424C2744.12,387.836 2739.97,386.68 2736.76,384.389C2736.77,384.403 2736.77,384.418 2736.77,384.431C2736.67,384.352 2736.57,384.273 2736.47,384.19C2739.49,395.562 2742.26,407.005 2745.32,418.376C2746.78,423.909 2748.31,429.415 2749.95,434.898C2751.12,438.834 2752.06,442.949 2753.23,446.961C2750.53,445.823 2747.24,446.077 2744.75,447.594C2741.03,449.849 2737.82,453.674 2736.13,457.569C2734.62,461.091 2732.85,465.792 2734.1,469.565C2735.52,473.794 2740.06,476.655 2744.54,475.806C2749.65,474.829 2753.07,470.158 2755.37,465.917C2757.4,462.141 2758.34,457.807 2757.86,453.609C2757.72,452.267 2757.39,451.173 2756.91,450.25C2754.38,439.62 2750.77,429.253 2747.7,418.763C2746.57,414.912 2745.36,411.083 2744.17,407.249C2746,408.236 2748.17,407.543 2751.11,406.848Z" style="fill:rgb(64,64,64);fill-rule:nonzero;"/>
        <path d="M2476.69,514.787C2479.61,517.039 2483.06,515.924 2487.9,514.76C2492.52,513.646 2496.94,513.187 2501.52,513.677C2505.35,514.069 2509.28,515.047 2512.44,517.367C2516.34,520.211 2517.12,524.773 2518.21,529.136C2517.04,527.955 2515.79,526.921 2514.21,526.242C2508.06,523.501 2501.04,524.219 2494.24,523.337C2488.06,522.544 2482.38,521.002 2477.77,518.167C2477.41,517.04 2477.05,515.914 2476.69,514.787ZM2492.93,532.816C2497.51,531.696 2501.96,531.243 2506.54,531.723C2513.14,532.412 2516.79,534.918 2521.31,539.248C2520.42,534.543 2520.05,529.812 2519.05,525.118C2518.47,522.388 2517.76,519.758 2516.9,517.138C2516.05,515.01 2514.96,512.977 2513.57,511.26C2512.31,509.975 2510.86,508.906 2509.21,508.171C2503.06,505.458 2496.05,506.186 2489.24,505.285C2482.46,504.405 2476.29,502.669 2471.46,499.26C2471.46,499.275 2471.47,499.29 2471.47,499.305C2471.32,499.184 2471.17,499.066 2471.03,498.936C2475.53,515.924 2479.68,533.05 2484.25,550.046C2486.45,558.312 2488.74,566.524 2491.19,574.72C2492.93,580.616 2494.3,586.77 2496.04,592.753C2492,591.082 2487.12,591.465 2483.41,593.715C2477.85,597.095 2473.05,602.832 2470.54,608.638C2468.27,613.901 2465.63,620.921 2467.5,626.578C2469.59,632.888 2476.4,637.176 2483.09,635.897C2490.72,634.428 2495.83,627.445 2499.28,621.114C2502.34,615.463 2503.73,609.02 2503.01,602.698C2502.8,600.728 2502.32,599.117 2501.63,597.748C2497.86,581.839 2492.39,566.323 2487.8,550.633C2486.12,544.879 2484.35,539.148 2482.57,533.423C2485.31,534.879 2488.54,533.858 2492.93,532.816Z" style="fill:rgb(64,64,64);fill-rule:nonzero;"/>
        <path d="M1590.18,423.213C1593.1,425.463 1596.55,424.349 1601.39,423.185C1606.01,422.07 1610.43,421.613 1615.01,422.102C1618.84,422.494 1622.78,423.473 1625.93,425.792C1629.84,428.637 1630.61,433.199 1631.71,437.562C1630.54,436.381 1629.28,435.347 1627.7,434.668C1621.55,431.927 1614.54,432.645 1607.74,431.762C1601.55,430.969 1595.88,429.428 1591.26,426.593C1590.9,425.466 1590.54,424.339 1590.18,423.213ZM1606.42,441.242C1611.01,440.122 1615.45,439.668 1620.03,440.149C1626.63,440.838 1630.28,443.344 1634.8,447.674C1633.92,442.968 1633.55,438.238 1632.54,433.544C1631.97,430.813 1631.25,428.184 1630.39,425.563C1629.55,423.435 1628.45,421.403 1627.06,419.685C1625.8,418.401 1624.36,417.332 1622.7,416.597C1616.55,413.884 1609.54,414.612 1602.74,413.711C1595.95,412.831 1589.78,411.095 1584.95,407.686C1584.96,407.701 1584.96,407.716 1584.97,407.731C1584.81,407.61 1584.66,407.491 1584.53,407.362C1589.03,424.35 1593.17,441.476 1597.75,458.472C1599.95,466.737 1602.23,474.949 1604.68,483.146C1606.43,489.042 1607.79,495.196 1609.53,501.178C1605.5,499.508 1600.61,499.891 1596.9,502.141C1591.34,505.52 1586.55,511.257 1584.04,517.065C1581.76,522.328 1579.12,529.347 1580.99,535.004C1583.09,541.313 1589.89,545.602 1596.58,544.322C1604.22,542.853 1609.33,535.871 1612.77,529.539C1615.83,523.889 1617.22,517.445 1616.51,511.124C1616.3,509.153 1615.81,507.542 1615.12,506.174C1611.35,490.264 1605.88,474.749 1601.3,459.058C1599.61,453.305 1597.85,447.574 1596.06,441.849C1598.8,443.305 1602.04,442.283 1606.42,441.242Z" style="fill:rgb(64,64,64);fill-rule:nonzero;"/>
        <path d="M1150.68,180.497C1158.47,186.209 1160,195.284 1162.13,203.976C1159.82,201.58 1157.32,199.54 1154.2,198.151C1141.97,192.753 1128.05,194.167 1114.46,192.431C1102.18,190.83 1090.87,187.77 1081.71,182.108C1081.01,179.908 1080.32,177.708 1079.62,175.509C1085.4,179.934 1092.27,177.645 1101.92,175.324C1111.06,173.118 1119.89,172.201 1128.95,173.177C1136.62,173.989 1144.45,175.95 1150.68,180.497ZM1094.59,245.57C1099,261.971 1103.51,278.34 1108.4,294.656C1111.86,306.351 1114.58,318.592 1118.05,330.494C1110.01,327.166 1100.27,327.938 1092.9,332.415C1081.86,339.119 1072.29,350.496 1067.29,362.101C1062.81,372.553 1057.59,386.526 1061.28,397.771C1065.45,410.312 1078.97,418.867 1092.28,416.3C1107.5,413.363 1117.63,399.488 1124.49,386.896C1130.55,375.67 1133.32,362.819 1131.92,350.292C1131.47,346.259 1130.54,342.912 1129.11,340.149C1121.61,308.596 1110.78,277.824 1101.68,246.73C1098.33,235.295 1094.83,223.899 1091.28,212.514C1096.72,215.396 1103.15,213.336 1111.87,211.237C1121.03,209.052 1129.84,208.125 1138.89,209.089C1152.06,210.493 1159.32,215.461 1168.3,224.06C1166.55,214.724 1165.81,205.29 1163.82,195.961C1162.68,190.556 1161.21,185.264 1159.57,180.08C1157.88,175.815 1155.69,171.807 1152.89,168.368C1150.41,165.84 1147.56,163.699 1144.25,162.219C1131.98,156.826 1118.08,158.279 1104.51,156.508C1091.04,154.743 1078.74,151.306 1069.15,144.526C1069.17,144.555 1069.17,144.586 1069.18,144.616C1068.88,144.385 1068.58,144.151 1068.29,143.904C1077.25,177.725 1085.54,211.699 1094.59,245.57Z" style="fill:rgb(64,64,64);fill-rule:nonzero;"/>
        <path d="M2882.55,288.209C2881.3,292.437 2876.94,298.817 2871.66,296.321C2870.32,295.694 2869.63,294.423 2869.49,293.027C2868.97,288.139 2873.04,279.504 2879.17,280.334C2882.96,280.852 2883.64,284.475 2882.55,288.209ZM2885.66,284.04C2885.54,282.947 2885.27,282.061 2884.88,281.317C2882.88,272.916 2880.02,264.717 2877.6,256.438C2874.87,247.09 2871.79,237.812 2868.89,228.514C2868.84,228.338 2868.57,228.52 2868.61,228.666C2871.04,237.816 2873.26,246.999 2875.71,256.117C2876.89,260.509 2878.09,264.859 2879.39,269.212C2880.32,272.337 2881.07,275.595 2881.99,278.773C2879.84,277.875 2877.24,278.08 2875.26,279.283C2872.33,281.065 2869.77,284.096 2868.45,287.188C2867.25,289.967 2865.84,293.7 2866.83,296.69C2867.94,300.037 2871.55,302.308 2875.09,301.622C2879.14,300.845 2881.85,297.154 2883.68,293.801C2885.3,290.804 2886.04,287.38 2885.66,284.04Z" style="fill:rgb(64,64,64);fill-rule:nonzero;"/>
        <path d="M1383.58,465.156C1386.72,454.474 1397.75,438.329 1411.13,444.636C1414.52,446.219 1416.27,449.427 1416.63,452.992C1417.9,465.327 1407.61,487.185 1392.09,485.057C1382.5,483.763 1380.81,474.593 1383.58,465.156ZM1391.58,513.196C1389.22,505.311 1387.37,497.055 1385.03,489.028C1390.45,491.277 1397.01,490.772 1401.98,487.743C1409.42,483.221 1415.87,475.564 1419.24,467.76C1422.28,460.709 1425.83,451.274 1423.32,443.699C1420.49,435.268 1411.39,429.486 1402.44,431.208C1392.16,433.173 1385.33,442.53 1380.71,451.029C1376.61,458.617 1374.74,467.256 1375.71,475.702C1375.99,478.327 1376.63,480.483 1377.54,482.311C1382.6,503.661 1389.93,524.486 1396.07,545.524C1403.01,569.179 1410.76,592.617 1418.11,616.131C1418.25,616.595 1418.92,616.128 1418.84,615.756C1412.67,592.654 1407.03,569.402 1400.83,546.305C1397.87,535.23 1394.82,524.188 1391.58,513.196Z" style="fill:rgb(64,64,64);fill-rule:nonzero;"/>
        <path d="M909.518,690.156C903.927,666.514 895.815,643.473 888.985,620.159C881.323,593.975 872.716,567.982 864.613,541.953C864.443,541.45 863.696,541.99 863.794,542.373C870.603,567.973 876.825,593.691 883.686,619.288C886.988,631.538 890.364,643.76 893.987,655.932C896.584,664.665 898.625,673.804 901.214,682.693C895.204,680.2 887.938,680.778 882.425,684.12C874.199,689.13 867.076,697.616 863.337,706.259C859.97,714.09 856.069,724.507 858.843,732.884C861.944,742.258 872.045,748.644 881.934,746.721C893.32,744.54 900.881,734.196 905.987,724.788C910.543,716.401 912.598,706.797 911.542,697.46C911.222,694.566 910.522,692.179 909.518,690.156Z" style="fill:rgb(64,64,64);fill-rule:nonzero;"/>
        <path d="M1755.91,739.918C1750.33,716.271 1742.2,693.198 1735.36,669.891C1727.67,643.703 1719.1,617.724 1710.99,591.694C1710.82,591.191 1710.07,591.713 1710.16,592.104C1716.98,617.706 1723.22,643.443 1730.08,669.031C1733.37,681.298 1736.72,693.499 1740.36,705.672C1742.96,714.398 1744.99,723.535 1747.58,732.414C1741.59,729.932 1734.33,730.506 1728.8,733.861C1720.6,738.855 1713.44,747.346 1709.73,756.002C1706.34,763.821 1702.43,774.246 1705.21,782.633C1708.32,791.981 1718.4,798.373 1728.33,796.464C1739.7,794.272 1747.26,783.937 1752.37,774.512C1756.92,766.141 1758.97,756.555 1757.93,747.192C1757.61,744.306 1756.91,741.934 1755.91,739.918Z" style="fill:rgb(64,64,64);fill-rule:nonzero;"/>
        <path d="M1235.46,450.111C1233.5,443.525 1231.96,436.649 1230.02,429.955C1234.54,431.832 1240.01,431.408 1244.15,428.886C1250.37,425.092 1255.75,418.728 1258.55,412.21C1261.08,406.323 1264.03,398.456 1261.94,392.158C1259.61,385.117 1251.99,380.295 1244.53,381.742C1235.96,383.375 1230.27,391.18 1226.42,398.262C1222.98,404.576 1221.44,411.814 1222.22,418.837C1222.47,421.032 1223,422.828 1223.76,424.35C1227.97,442.161 1234.07,459.519 1239.25,477.046C1245.01,496.799 1251.48,516.359 1257.61,535.983C1257.71,536.366 1258.28,535.969 1258.21,535.664C1253.06,516.389 1248.37,497.008 1243.21,477.714C1240.72,468.503 1238.19,459.279 1235.46,450.111Z" style="fill:rgb(64,64,64);fill-rule:nonzero;"/>
        <path d="M2640.2,449.542C2638.25,442.962 2636.72,436.076 2634.77,429.382C2639.28,431.257 2644.75,430.825 2648.91,428.3C2655.12,424.514 2660.47,418.156 2663.28,411.63C2665.82,405.727 2668.77,397.859 2666.67,391.559C2664.34,384.527 2656.73,379.725 2649.28,381.155C2640.69,382.795 2635.01,390.582 2631.16,397.675C2627.72,403.997 2626.18,411.208 2626.96,418.268C2627.2,420.41 2627.72,422.181 2628.46,423.686C2632.69,441.518 2638.79,458.906 2643.98,476.475C2649.77,496.213 2656.22,515.771 2662.33,535.402C2662.45,535.796 2662.99,535.387 2662.93,535.092C2657.81,515.812 2653.12,496.421 2647.96,477.135C2645.45,467.904 2642.92,458.699 2640.2,449.542Z" style="fill:rgb(64,64,64);fill-rule:nonzero;"/>
    </g>
    <defs>
        <linearGradient id="_Linear1" x1="0" y1="0" x2="1" y2="0" gradientUnits="userSpaceOnUse" gradientTransform="matrix(2747.16,226.611,-226.611,2747.16,153.131,385.23)"><stop offset="0" style="stop-color:rgb(109,110,112);stop-opacity:1"/><stop offset="0.6" style="stop-color:rgb(144,146,148);stop-opacity:1"/><stop offset="0.8" style="stop-color:rgb(178,179,181);stop-opacity:1"/><stop offset="1" style="stop-color:rgb(237,237,237);stop-opacity:1"/></linearGradient>
    </defs>
</svg>
