<svg xmlns="http://www.w3.org/2000/svg" height="800" width="1200" viewBox="-2.028015 -5.4999 17.57613 32.9994"><defs><clipPath id="a" clipPathUnits="userSpaceOnUse"><path d="M528.604 28.346h38.325v62.362h-38.325z"/></clipPath></defs><g clip-path="url(#a)" transform="matrix(.35278 0 0 -.35278 -186.4797 31.9998)"><path d="M528.8915 86.1268c0 2.358 1.902 4.27 4.248 4.27h29.254c2.346 0 4.248-1.911 4.248-4.27v-53.199c0-2.358-1.902-4.269-4.248-4.269h-29.254c-2.346 0-4.248 1.912-4.248 4.27z" fill="#fff"/><path d="M565.7117 86.3959c0 1.709-1.386 3.095-3.095 3.095h-29.7c-1.709 0-3.095-1.386-3.095-3.095v-53.736c0-1.71 1.386-3.095 3.095-3.095l29.7-.001c1.709 0 3.095 1.386 3.095 3.096zm1.217 0v-53.736c0-2.382-1.931-4.313-4.312-4.313h-29.7c-2.382 0-4.313 1.931-4.313 4.313v53.736c0 2.381 1.931 4.312 4.313 4.312l29.7.001c2.381 0 4.312-1.931 4.312-4.313m-36.176-46.158h34.028v38.583h-34.028zm0-7.578c0-1.195.969-2.164 2.164-2.164l29.7-.001c1.195 0 2.164.969 2.164 2.165v6.641h-34.028zm34.028 53.736v-6.637h-34.028v6.637c0 1.195.969 2.164 2.164 2.164l29.7.001c1.195 0 2.164-.97 2.164-2.165" fill="#00109f"/><path d="M559.9268 82.3636c-.56-.039-1.111.256-1.535.814l-.034.044-.301-1.073.009-.011c.334-.402 1.029-.662 1.771-.662 1.085 0 1.843.654 1.843 1.59 0 .569-.162 1.199-1.359 1.553-.953.284-1.127.504-1.127.836 0 .366.376.532.725.532.41 0 .786-.145 1.184-.456l.031-.024.281.906-.017.011c-.434.286-.907.42-1.487.42-1.056 0-1.738-.568-1.738-1.448 0-.715.49-1.225 1.456-1.516.312-.093.522-.18.661-.274a.6785.6785 0 00.301-.564c0-.367-.279-.652-.664-.678m-24.989 2.245h1.037c.466 0 .713.221.713.638 0 .417-.247.638-.713.638h-1.037zm0-3.056h-1.042v5.214h2.243c.943 0 1.602-.576 1.602-1.401 0-.702-.46-1.042-.846-1.204l-.07-.03.069-.031c.213-.098.36-.311.46-.67l.372-1.303c.058-.198.125-.344.223-.489l.058-.086h-1.073l-.016.018c-.098.106-.192.289-.252.489l-.351 1.177c-.1.338-.214.489-.615.489h-.762zm21.348.887h-2.396v4.327h-1.065v-5.214h3.461zm-5.534 0h-2.397v4.327h-1.065v-5.214h3.462zm-9.957 1.72c0-1.109.592-1.797 1.544-1.797.953 0 1.544.688 1.544 1.797s-.591 1.797-1.544 1.797c-.952 0-1.544-.688-1.544-1.797m-1.095 0c0 1.58 1.085 2.684 2.639 2.684 1.554 0 2.639-1.104 2.639-2.684s-1.085-2.684-2.639-2.684c-1.554 0-2.639 1.104-2.639 2.684m10.375-16.031c0 1.908-.768 3.505-2.162 4.496-1.067.754-2.39 1.119-4.165 1.149h-4.992v-13.024l.249.005c9.991.171 11.07 5.214 11.07 7.374m-.176 5.685c1.839-1.255 3.116-3.482 3.086-5.651 0-2.944-1.658-5.41-4.669-6.945-.054-.027-.103-.048-.152-.069-.055-.024-.111-.047-.174-.079l-.284-.141.209-.239c1.961-2.251 3.189-5.452 3.746-7.159.235-.72.416-1.462.744-2.81l.066-.271c.443-1.79 1.473-2.323 1.992-2.48v-.395h-5.85v.4c.81.261.938.86.96 1.301l.002.046.003.101-.001.09c-.004.545-.159 2.05-.161 2.062-.438 3.162-1.796 6.433-3.544 8.537l-.1.12-.151-.039c-1.993-.522-4.283-.798-6.62-.798h-.246l.017-9.193c0-1.16.486-1.924 1.409-2.221v-.406h-5.676v.406c.894.288 1.356 1.013 1.409 2.211v.011c0 .222-.006 22.242-.002 22.502-.025 1.266-.485 1.992-1.446 2.276v.398h9.427c2.761 0 4.565-.596 6.006-1.565m4.13-4.877c.139-.066.349-.204.454-.278 1.394-.991 2.162-2.588 2.162-4.495 0-1.645-.61-4.962-5.477-6.579.312-.55.533-1.124.66-1.434.115.017.293.057.363.076l.151.04.1-.12c1.748-2.104 3.106-5.375 3.545-8.538.001-.011.156-1.516.16-2.061l.001-.09-.003-.102-.001-.046c-.023-.441-.15-1.04-.96-1.3v-.4h5.85v.395c-.519.156-1.55.689-1.992 2.48l-.066.27c-.329 1.348-.51 2.091-.745 2.81-.557 1.708-1.785 4.908-3.746 7.159l-.208.239.284.141c.063.032.118.056.174.079.048.022.097.042.151.069 3.011 1.536 4.67 4.001 4.67 6.945.03 2.169-1.248 4.397-3.087 5.651-.796.535-1.858 1.089-3.032 1.289.361-.822.539-1.665.592-2.2m-6.777-13.464c-.116.436-.405 1.035-.587 1.351-.322-.017-.747-.029-1.09-.035l-.249-.004v2.223c-.654-.195-2.163-.408-2.844-.497.001-5.853.003-12.157.003-12.274v-.011c-.054-1.198-.516-1.923-1.41-2.211v-.405h5.677v.405c-.923.297-1.41 1.061-1.41 2.222l-.016 9.192h.245c.534 0 1.155.016 1.681.044m.47 15.94h-6.686v-.397c.961-.285 1.422-1.011 1.447-2.276-.002-.091-.002-3.066-.002-6.607 1.364.241 2.393.645 2.845.869v6.807h3.407c-.261.728-.777 1.386-1.011 1.604m-11.239-35.409c0 .418-.246.638-.713.638h-1.037v-1.276h1.037c.467 0 .713.221.713.638m1.261-3.608l.058-.086h-1.073l-.016.018c-.098.106-.192.289-.252.489l-.35 1.177c-.101.339-.214.49-.616.49h-.762v-2.174h-1.041v5.215h2.242c.944 0 1.603-.577 1.603-1.402 0-.702-.461-1.042-.846-1.204l-.071-.03.069-.031c.213-.098.36-.311.461-.67l.372-1.303c.058-.198.124-.344.222-.489m5.86 2.494c0 1.108-.591 1.797-1.543 1.797-.953 0-1.545-.689-1.545-1.797 0-1.109.592-1.797 1.545-1.797.952 0 1.543.688 1.543 1.797m1.096 0c0-1.571-1.086-2.668-2.639-2.668-1.554 0-2.64 1.097-2.64 2.668 0 1.58 1.086 2.684 2.64 2.684 1.553 0 2.639-1.104 2.639-2.684m3.559.519l-1.035 2.1-.008.016h-1.207l1.717-3.265v-1.95h1.076v1.991l1.686 3.183.021.041h-1.207zm6.006 1.278c.653 0 1.081-.302 1.308-.923l.01-.028.861.364.023.011-.008.023c-.313.942-1.072 1.44-2.194 1.44-1.518 0-2.579-1.104-2.579-2.684 0-1.571 1.061-2.668 2.579-2.668.962 0 1.735.466 2.177 1.311l.014.026-.851.364-.024.01-.012-.023c-.27-.558-.685-.817-1.304-.817-.929 0-1.484.671-1.484 1.797 0 1.125.555 1.797 1.484 1.797m5.438-.049v-1.198h1.757v-.886h-1.757v-1.357h2.397v-.887h-3.462v5.215h3.462v-.887z" fill="#fff"/></g></svg>